<?xml version="1.0" standalone="no"?>
<!DOCTYPE svg PUBLIC "-//W3C//DTD SVG 20010904//EN"
 "http://www.w3.org/TR/2001/REC-SVG-20010904/DTD/svg10.dtd">
<svg version="1.0" xmlns="http://www.w3.org/2000/svg"
 width="1350.000000pt" height="1350.000000pt" viewBox="0 0 1350.000000 1350.000000"
 preserveAspectRatio="xMidYMid meet">

<defs>
  <linearGradient id="purpleGradient" x1="0%" y1="0%" x2="100%" y2="0%">
    <stop offset="0%" stop-color="#800080" /> <stop offset="100%" stop-color="#4B0082" />
  </linearGradient>
</defs>

<g transform="translate(0.000000,1350.000000) scale(0.100000,-0.100000)"
fill="url(#purpleGradient)" stroke="none">
<path d="M8590 12493 c-159 -15 -235 -35 -340 -87 -66 -32 -97 -53 -180 -122
-153 -127 -259 -254 -325 -388 -15 -31 -31 -58 -35 -61 -4 -2 -13 -26 -20 -52
-7 -27 -17 -53 -22 -59 -5 -7 -16 -56 -24 -110 -8 -55 -20 -128 -25 -164 -7
-40 -8 -185 -4 -380 3 -181 2 -335 -3 -363 -5 -26 -7 -49 -3 -51 8 -5 7 -1499
-2 -2791 -9 -1288 -14 -1632 -28 -1676 -5 -19 -16 -71 -24 -117 -7 -46 -19
-90 -25 -97 -6 -8 -13 -35 -15 -61 -2 -29 -9 -52 -19 -59 -9 -7 -16 -18 -16
-25 0 -40 -151 -250 -242 -336 -109 -104 -274 -196 -438 -245 -69 -21 -96 -23
-321 -23 -205 -1 -252 2 -285 16 -21 9 -75 30 -119 46 -83 32 -150 65 -220
107 -22 13 -47 27 -55 31 -31 15 -75 58 -75 73 0 9 -6 17 -13 17 -6 1 -17 2
-23 3 -6 0 -9 10 -6 21 4 15 1 20 -10 18 -8 -2 -20 5 -27 16 -6 10 -24 33 -39
50 -36 39 -58 81 -49 91 4 3 1 5 -7 3 -25 -6 -125 193 -177 350 -21 66 -24 93
-24 226 0 107 5 168 16 206 8 30 19 75 24 100 9 49 83 221 112 259 10 13 18
29 18 36 0 6 8 21 18 33 9 12 32 46 51 77 18 30 37 55 42 55 5 0 9 5 9 11 0
17 118 126 176 162 27 18 59 38 70 45 10 6 30 17 44 23 14 6 41 20 61 30 20
11 53 19 72 19 22 0 37 6 41 15 3 9 18 15 38 15 42 0 100 16 109 31 3 6 49 14
102 18 65 5 100 12 110 23 9 9 42 19 74 23 166 21 270 156 280 366 4 78 2 92
-21 136 -29 59 -75 96 -154 126 -48 18 -79 21 -207 21 -157 1 -280 -16 -400
-54 -33 -11 -79 -22 -102 -26 -23 -3 -44 -12 -47 -19 -2 -7 -23 -16 -45 -20
-22 -4 -45 -13 -51 -20 -6 -8 -25 -17 -41 -20 -16 -4 -31 -11 -34 -16 -3 -5
-38 -25 -78 -45 -40 -20 -79 -42 -87 -49 -9 -8 -24 -18 -35 -22 -136 -56 -418
-336 -535 -533 -18 -30 -47 -77 -65 -105 -117 -184 -194 -411 -217 -640 -13
-132 -5 -500 11 -540 7 -16 17 -56 22 -88 10 -58 42 -165 74 -242 20 -50 103
-225 116 -245 5 -8 15 -26 21 -40 25 -50 128 -196 178 -252 28 -31 83 -80 123
-109 39 -28 77 -57 82 -64 32 -39 286 -214 351 -241 18 -8 35 -18 38 -23 4 -5
21 -13 39 -16 17 -4 48 -15 67 -25 49 -24 127 -50 175 -59 22 -4 56 -15 75
-24 50 -23 315 -57 445 -57 108 1 282 27 435 65 329 82 520 199 839 515 177
176 224 245 331 485 12 28 28 64 35 80 17 38 42 114 61 185 9 30 21 69 28 85
20 45 41 307 41 505 0 96 -4 450 -9 785 -22 1516 -10 4046 20 4252 7 46 23 49
25 5 1 -19 6 -9 20 33 23 73 23 76 4 69 -11 -5 -14 -2 -8 12 15 41 136 174
157 174 4 0 19 9 34 20 18 13 56 24 112 31 144 18 268 -17 348 -97 46 -45 69
-89 108 -199 28 -77 29 -87 28 -260 0 -99 -4 -956 -8 -1905 -4 -949 -9 -2053
-10 -2455 -1 -556 -5 -744 -15 -789 -7 -32 -16 -115 -21 -185 -4 -73 -14 -143
-23 -166 -9 -22 -16 -57 -17 -78 0 -20 -9 -54 -20 -74 -11 -21 -20 -53 -20
-71 0 -19 -9 -45 -20 -59 -11 -14 -20 -38 -20 -53 0 -15 -9 -37 -19 -49 -10
-12 -22 -42 -26 -67 -3 -25 -12 -47 -20 -50 -7 -3 -16 -20 -19 -39 -4 -18 -13
-39 -21 -45 -9 -7 -18 -30 -22 -52 -3 -22 -12 -42 -19 -45 -6 -2 -15 -16 -19
-31 -11 -47 -59 -142 -72 -142 -7 0 -13 -11 -13 -23 0 -33 -80 -144 -200 -278
-8 -9 -64 -73 -125 -141 -60 -69 -130 -140 -154 -159 -25 -19 -49 -39 -55 -44
-26 -25 -85 -62 -241 -152 -236 -136 -397 -219 -530 -271 -99 -38 -120 -45
-280 -87 -91 -24 -258 -47 -400 -56 -163 -10 -503 -4 -590 12 -33 6 -103 16
-155 24 -193 26 -400 96 -620 208 -63 33 -121 64 -128 69 -7 6 -26 18 -42 27
-100 54 -271 168 -318 211 -18 16 -36 30 -39 30 -3 0 -16 10 -28 23 -12 12
-64 63 -116 114 -106 103 -200 201 -274 287 -51 59 -155 214 -155 230 0 5 -6
17 -14 25 -23 26 -103 184 -110 218 -4 17 -14 34 -22 37 -8 3 -14 13 -14 23 0
10 -11 41 -25 68 -13 28 -25 56 -25 62 0 12 -29 81 -55 133 -21 41 -75 243
-100 375 -28 152 -45 327 -45 472 0 149 31 469 50 527 6 16 15 59 21 95 5 36
14 70 19 76 4 5 13 30 20 55 12 46 18 62 64 162 14 31 26 61 26 66 0 9 38 93
60 132 19 34 70 139 70 145 0 3 8 18 19 33 10 15 49 74 87 132 37 58 74 112
81 120 7 8 41 51 75 95 112 142 326 350 438 423 30 20 60 40 65 44 45 36 225
146 266 164 15 7 30 17 33 23 4 6 24 11 44 11 25 0 33 3 23 9 -20 13 17 31 63
31 19 0 38 5 41 10 3 6 1 10 -6 10 -10 0 -10 3 -2 11 6 6 29 12 51 13 22 0 38
5 35 9 -9 15 19 27 64 27 23 0 45 5 49 12 5 8 1 9 -12 5 -18 -7 -18 -7 0 8 11
8 27 15 35 16 9 0 32 1 51 2 26 2 34 6 32 18 -3 18 41 35 59 23 6 -3 22 -3 37
1 25 7 25 8 7 15 -17 6 -14 9 20 20 22 8 61 13 87 13 26 0 46 3 43 7 -8 14 81
30 164 30 44 0 106 7 138 15 40 11 111 15 238 16 183 0 268 8 286 26 6 6 17
50 26 99 11 67 17 205 22 559 7 457 7 463 11 195 l4 -275 6 300 c6 364 1 1045
-9 1045 -4 0 -8 -12 -9 -27 -5 -58 -12 -31 -13 48 0 46 -6 102 -13 124 -17 58
-43 63 -342 64 -308 1 -671 -30 -916 -80 -53 -10 -108 -19 -122 -19 -14 0 -43
-6 -63 -14 -21 -8 -85 -29 -143 -46 -172 -52 -233 -72 -276 -91 -23 -11 -48
-19 -56 -19 -14 0 -95 -28 -190 -65 -21 -8 -55 -22 -75 -30 -67 -25 -287 -123
-338 -150 -63 -32 -161 -92 -205 -125 -18 -14 -61 -43 -96 -65 -34 -22 -100
-65 -146 -95 -45 -30 -95 -61 -110 -69 -15 -8 -36 -22 -46 -31 -9 -9 -31 -25
-47 -35 -47 -30 -207 -150 -235 -177 -14 -13 -67 -59 -118 -102 -130 -109
-285 -258 -344 -328 -15 -18 -39 -45 -53 -60 -95 -103 -190 -216 -287 -343 -4
-5 -18 -23 -31 -40 -14 -16 -42 -57 -63 -90 -50 -78 -56 -86 -77 -124 -10 -18
-56 -94 -103 -168 -46 -75 -99 -168 -118 -207 -48 -100 -86 -187 -86 -197 0
-5 -18 -48 -41 -96 -89 -194 -179 -431 -210 -557 -5 -21 -15 -48 -21 -59 -6
-12 -19 -55 -29 -97 -9 -41 -29 -124 -44 -185 -14 -60 -30 -138 -36 -173 -5
-34 -13 -82 -19 -107 -6 -25 -17 -89 -25 -142 -8 -54 -19 -129 -26 -168 -8
-46 -12 -214 -13 -495 -1 -400 1 -433 22 -555 13 -71 32 -164 42 -205 10 -41
24 -97 30 -125 6 -27 20 -84 30 -125 10 -41 28 -112 38 -156 11 -45 22 -87 26
-93 4 -5 16 -43 27 -83 35 -130 47 -172 69 -233 24 -68 109 -282 120 -305 5
-8 38 -78 75 -155 105 -220 162 -332 200 -391 19 -30 35 -57 35 -60 0 -4 124
-196 193 -297 22 -33 117 -157 135 -176 119 -127 732 -743 760 -764 20 -15 62
-47 92 -70 172 -135 333 -242 480 -320 30 -16 61 -34 68 -40 24 -19 264 -141
299 -151 11 -4 27 -13 33 -21 7 -8 21 -15 32 -15 17 0 44 -11 174 -71 22 -11
47 -19 55 -19 8 0 23 -6 34 -13 18 -12 71 -33 220 -87 28 -10 68 -21 90 -25
22 -4 49 -13 61 -20 12 -7 39 -17 60 -20 21 -4 63 -15 92 -26 29 -10 60 -19
70 -19 9 0 46 -9 82 -19 94 -29 194 -52 285 -66 44 -8 91 -18 105 -23 34 -13
120 -20 310 -27 85 -3 202 -8 260 -11 115 -6 649 12 745 25 91 13 298 52 307
57 4 3 40 11 80 18 170 32 401 91 433 111 11 8 38 17 60 20 22 4 49 13 60 20
11 6 33 15 50 19 16 4 48 16 72 27 23 10 48 19 55 19 7 0 27 9 43 20 17 11 36
20 43 20 12 0 62 21 172 72 25 12 52 25 60 29 8 5 51 27 95 49 44 23 87 45 95
50 8 5 77 44 153 87 76 43 148 85 161 93 13 8 43 28 67 44 115 76 208 140 249
171 25 19 51 38 59 42 8 3 22 12 30 20 9 7 41 34 71 61 31 26 78 65 104 87 47
39 70 60 212 196 86 82 204 210 204 221 0 4 7 8 15 8 8 0 15 5 15 11 0 6 12
23 28 38 43 42 184 208 220 259 18 26 62 90 97 142 36 52 86 122 110 155 25
33 49 69 54 80 5 12 16 27 25 34 9 7 16 19 16 25 0 6 20 40 45 76 25 36 45 70
45 76 0 6 9 19 20 29 11 10 20 26 20 35 0 9 9 25 20 35 11 10 20 26 20 35 0
10 9 28 19 42 11 13 23 36 26 51 4 14 13 31 21 38 8 6 14 17 14 23 0 6 11 34
25 61 13 28 25 58 25 69 0 10 9 35 19 55 11 20 22 48 25 63 3 15 13 33 21 42
8 8 15 25 15 38 0 13 9 41 19 61 11 21 22 56 26 78 4 22 13 45 20 52 7 7 16
33 20 58 4 24 13 54 21 66 8 13 17 44 21 70 3 27 12 61 20 76 8 16 19 56 24
90 6 34 14 66 20 73 5 6 14 49 19 95 6 46 17 107 24 134 8 28 17 82 21 120 4
39 13 97 21 130 7 33 18 120 23 193 7 89 16 140 26 155 22 32 22 508 0 551 -9
16 -20 60 -25 99 -11 72 -41 155 -72 196 -10 13 -18 30 -18 37 0 8 -9 14 -20
14 -11 0 -24 8 -27 18 -9 23 -23 32 -55 32 -15 0 -31 8 -37 18 -8 14 -25 17
-113 17 -87 0 -109 -3 -133 -20 -17 -11 -33 -20 -38 -20 -15 0 -98 -101 -104
-125 -3 -14 -12 -36 -20 -48 -8 -13 -19 -69 -25 -125 -5 -55 -16 -111 -25
-123 -11 -18 -14 -55 -12 -186 4 -266 -5 -762 -15 -777 -8 -12 -11 -11 -17 5
-5 11 -8 -14 -8 -61 -1 -92 -8 -125 -26 -125 -17 0 -25 -32 -25 -100 0 -43 -5
-59 -20 -73 -14 -11 -20 -29 -20 -57 0 -26 -6 -45 -20 -57 -12 -12 -21 -36
-24 -68 -3 -29 -11 -54 -21 -61 -9 -6 -19 -34 -24 -62 -4 -28 -15 -58 -24 -67
-10 -9 -17 -28 -17 -42 0 -14 -9 -41 -21 -60 -12 -18 -22 -50 -23 -71 0 -23
-6 -36 -13 -35 -7 2 -17 -16 -24 -41 -6 -25 -17 -47 -24 -50 -7 -2 -15 -15
-18 -28 -11 -44 -98 -216 -145 -288 -9 -14 -25 -41 -34 -60 -10 -19 -27 -48
-38 -65 -11 -16 -26 -41 -34 -55 -27 -47 -144 -219 -160 -235 -9 -9 -16 -21
-16 -26 0 -27 -174 -236 -325 -389 -140 -142 -204 -203 -325 -305 -52 -44 -99
-86 -103 -92 -4 -7 -12 -13 -17 -13 -5 0 -47 -28 -94 -62 -102 -76 -237 -162
-326 -209 -35 -19 -69 -39 -75 -46 -17 -20 -446 -232 -471 -233 -5 -1 -27 -9
-49 -20 -22 -11 -46 -19 -53 -20 -7 0 -32 -8 -55 -19 -23 -10 -58 -22 -77 -25
-19 -4 -51 -13 -70 -21 -33 -12 -60 -20 -250 -65 -41 -10 -93 -23 -115 -29
-22 -5 -71 -17 -110 -27 -38 -9 -104 -20 -145 -24 -41 -4 -111 -15 -156 -24
-70 -15 -137 -17 -515 -14 -304 2 -442 7 -461 15 -14 7 -72 17 -128 23 -56 6
-113 15 -127 21 -14 5 -64 16 -111 24 -48 8 -105 19 -127 25 -22 5 -94 21
-160 36 -66 14 -136 32 -155 39 -19 7 -73 27 -120 44 -108 40 -93 34 -305 136
-186 90 -378 194 -383 207 -2 4 -8 8 -13 8 -15 0 -276 150 -289 166 -7 7 -19
14 -26 14 -8 0 -14 5 -14 11 0 5 -15 16 -33 24 -19 8 -39 21 -47 29 -7 9 -17
16 -22 16 -22 0 -202 158 -388 340 -118 116 -232 247 -330 379 -14 19 -36 49
-50 66 -14 18 -32 43 -40 55 -8 12 -34 48 -58 81 -23 32 -42 63 -42 67 0 5 -9
17 -20 27 -11 10 -20 23 -20 28 0 5 -19 40 -43 76 -63 99 -65 102 -90 151 -12
25 -51 99 -86 165 -75 141 -67 125 -124 245 -79 167 -140 339 -186 525 -46
181 -55 224 -66 315 -7 52 -19 136 -28 185 -38 218 -59 724 -37 914 5 47 14
136 20 198 6 61 17 127 25 146 8 19 17 65 21 103 3 38 12 94 19 124 7 30 16
78 20 105 12 91 72 297 109 380 8 17 33 80 56 140 43 112 83 204 125 285 118
229 140 268 158 281 5 4 14 15 20 26 35 58 60 93 66 93 4 0 13 12 19 26 7 14
36 55 65 92 30 37 60 78 67 92 7 14 28 44 46 67 19 23 34 46 34 51 0 5 8 18
18 30 9 11 28 35 42 53 14 17 32 40 41 49 10 10 20 32 24 49 5 22 12 31 23 29
12 -2 18 5 20 25 2 19 9 27 24 27 13 0 18 5 15 14 -7 19 18 40 35 30 7 -4 10
-4 6 1 -11 12 12 47 27 41 8 -3 12 0 9 8 -4 11 67 85 152 157 16 14 66 57 109
95 174 152 325 263 520 381 23 14 137 86 198 125 54 34 241 128 257 128 23 0
-3 -20 -65 -52 -36 -17 -63 -33 -61 -35 2 -2 34 11 72 28 110 49 154 65 429
158 451 153 479 160 725 187 80 8 168 18 196 21 65 7 89 -13 98 -83 12 -98 11
-598 -1 -620 -13 -23 -37 -34 -125 -59 -62 -17 -80 -31 -25 -20 17 4 29 4 25
0 -4 -4 -35 -13 -70 -21 -35 -7 -90 -20 -123 -29 -33 -9 -96 -25 -140 -37 -44
-11 -96 -26 -115 -34 -19 -7 -53 -16 -75 -20 -22 -4 -57 -15 -77 -25 -21 -11
-44 -19 -52 -19 -15 0 -104 -40 -331 -150 -66 -32 -125 -60 -130 -62 -34 -11
-237 -142 -336 -216 -222 -166 -397 -333 -572 -546 -72 -88 -138 -167 -146
-177 -81 -90 -220 -314 -304 -492 -26 -54 -47 -101 -47 -104 0 -3 -9 -24 -19
-47 -25 -54 -75 -186 -96 -256 -9 -30 -25 -77 -35 -105 -42 -116 -95 -344
-106 -450 -3 -38 -12 -88 -19 -110 -8 -22 -18 -119 -24 -215 -13 -199 0 -518
23 -604 8 -28 17 -78 21 -111 7 -62 31 -171 64 -285 10 -36 23 -83 29 -105 27
-104 71 -234 97 -292 8 -17 15 -34 15 -38 0 -12 55 -142 114 -265 55 -117 215
-364 331 -510 140 -177 433 -478 543 -558 45 -32 97 -72 112 -84 8 -7 35 -26
61 -43 26 -16 99 -63 162 -103 63 -40 153 -91 198 -114 183 -87 279 -129 341
-148 21 -6 40 -16 43 -21 4 -5 16 -9 28 -9 12 -1 40 -8 62 -16 62 -23 162 -54
250 -75 309 -77 399 -90 733 -109 223 -13 200 -14 562 29 100 12 230 38 310
62 36 10 81 19 101 19 20 0 42 7 49 15 7 8 39 20 71 27 32 7 59 16 59 20 0 4
5 8 10 8 11 0 179 64 208 79 9 5 42 20 72 34 160 72 402 197 420 216 3 4 30
23 60 43 86 59 100 69 180 131 195 152 243 196 450 412 58 61 124 133 147 160
43 52 213 303 213 314 0 3 17 31 38 61 21 30 53 87 71 125 18 39 37 77 42 85
5 8 12 22 15 30 3 8 16 36 30 61 13 26 24 58 24 72 0 14 6 32 14 39 7 8 17 30
21 49 4 19 16 50 26 69 11 19 19 43 19 54 0 10 8 33 19 50 10 17 22 51 25 76
4 25 13 54 20 65 8 11 17 43 21 71 3 28 12 63 20 77 7 14 16 58 20 98 4 41 14
92 22 114 32 92 38 422 38 2270 0 1896 -7 3385 -16 3495 -11 140 -62 313 -111
379 -10 13 -18 28 -18 33 0 5 -8 21 -18 36 -52 77 -87 128 -97 140 -30 40
-129 129 -190 173 -141 101 -252 138 -500 170 -145 18 -179 20 -255 12z
m-1753 -2040 c-2 -32 -3 -6 -3 57 0 63 1 89 3 58 2 -32 2 -84 0 -115z m-732
28 c6 -11 -11 -14 -150 -30 -49 -6 -135 -17 -190 -25 -113 -17 -178 -20 -155
-7 27 15 112 31 260 50 169 22 227 25 235 12z m-608 -107 c-3 -3 -12 -4 -19
-1 -8 3 -5 6 6 6 11 1 17 -2 13 -5z m-607 -209 c-30 -17 -40 -18 -40 -6 0 10
22 18 50 19 8 1 4 -5 -10 -13z m-76 -35 c-5 -5 -25 -12 -44 -15 l-35 -5 30 14
c35 18 64 21 49 6z"/>
<path d="M9818 10338 c-2 -513 -1 -1043 2 -1178 3 -135 7 285 8 933 1 647 0
1177 -3 1177 -3 0 -6 -420 -7 -932z"/>
<path d="M6228 11173 c6 -2 18 -2 25 0 6 3 1 5 -13 5 -14 0 -19 -2 -12 -5z"/>
<path d="M6088 11163 c12 -2 32 -2 45 0 12 2 2 4 -23 4 -25 0 -35 -2 -22 -4z"/>
<path d="M5706 11129 c-32 -5 -62 -12 -65 -15 -8 -8 152 4 199 16 32 7 31 8
-20 8 -30 0 -82 -4 -114 -9z"/>
<path d="M5491 11089 c-24 -5 -47 -11 -50 -15 -9 -10 88 4 107 16 21 12 7 12
-57 -1z"/>
<path d="M4485 9960 c-3 -6 1 -7 9 -4 18 7 21 14 7 14 -6 0 -13 -4 -16 -10z"/>
<path d="M5813 9603 c9 -2 23 -2 30 0 6 3 -1 5 -18 5 -16 0 -22 -2 -12 -5z"/>
<path d="M5978 8913 c7 -3 16 -2 19 1 4 3 -2 6 -13 5 -11 0 -14 -3 -6 -6z"/>
<path d="M2344 6535 c0 -55 1 -76 3 -47 2 29 2 74 0 100 -2 26 -3 2 -3 -53z"/>
<path d="M2343 6215 c0 -38 2 -53 4 -32 2 20 2 52 0 70 -2 17 -4 1 -4 -38z"/>
</g>
</svg>
